<?xml version="1.0" standalone="no"?>
<!DOCTYPE svg PUBLIC "-//W3C//DTD SVG 20010904//EN"
 "http://www.w3.org/TR/2001/REC-SVG-20010904/DTD/svg10.dtd">
<svg version="1.0" xmlns="http://www.w3.org/2000/svg"
 width="412.000000pt" height="412.000000pt" viewBox="0 0 412.000000 412.000000"
 preserveAspectRatio="xMidYMid meet">
<metadata>
Created by potrace 1.11, written by Peter Selinger 2001-2013
</metadata>
<g transform="translate(0.000000,412.000000) scale(0.100000,-0.100000)"
fill="#000000" stroke="none">
<path d="M1860 3925 c-98 -18 -162 -41 -290 -105 -129 -65 -285 -167 -361
-237 -74 -69 -150 -184 -243 -368 -107 -210 -137 -309 -139 -452 l-2 -113 -30
-5 c-16 -2 -57 -7 -90 -10 -33 -4 -86 -13 -118 -22 -74 -20 -97 -48 -97 -117
0 -59 12 -76 52 -76 27 0 28 -2 28 -52 0 -75 34 -227 65 -295 38 -84 70 -121
131 -151 31 -15 52 -32 50 -38 -33 -87 -32 -350 2 -464 65 -214 148 -368 316
-580 42 -52 76 -100 76 -106 0 -14 -143 -84 -255 -126 -44 -16 -84 -33 -88
-37 -9 -9 95 -85 213 -157 76 -46 236 -123 334 -159 l70 -26 -45 48 c-75 80
-139 208 -153 303 -6 42 -2 37 52 -65 65 -124 109 -191 165 -252 57 -62 64
-53 14 20 -24 34 -63 98 -87 142 l-43 80 48 -53 c73 -81 136 -106 300 -117
130 -8 294 30 420 98 138 74 469 336 631 498 l111 112 -22 -150 c-26 -169 -39
-203 -134 -329 -101 -135 -265 -276 -441 -378 l-65 -37 50 6 c283 36 596 151
822 302 101 67 262 192 263 204 0 3 -48 30 -107 59 -94 47 -119 65 -193 140
-47 48 -96 93 -109 99 -30 16 -26 40 33 227 24 77 49 162 56 189 9 41 17 53
43 65 52 25 79 85 87 200 3 54 11 105 17 112 6 7 42 74 80 148 l68 135 -1 95
c0 67 -6 115 -21 163 -17 55 -19 73 -10 97 8 22 8 35 -2 54 -11 19 -11 32 -2
57 17 50 33 256 26 339 -8 89 -37 216 -61 262 -40 79 -128 188 -322 399 -237
258 -363 341 -622 410 -99 27 -361 35 -470 14z m400 -61 c151 -30 299 -88 398
-156 106 -73 313 -295 496 -532 46 -60 79 -136 96 -223 16 -78 8 -338 -11
-406 -14 -49 -14 -49 -49 -43 -19 4 -56 9 -82 13 l-48 6 6 38 c8 49 -11 53
-20 4 -7 -33 -7 -34 -25 -16 -22 22 -90 45 -184 61 -59 11 -70 16 -80 39 -42
100 -179 236 -267 266 -64 22 -288 37 -378 26 -85 -11 -118 -29 -138 -76 -17
-42 -18 -117 -2 -133 16 -16 57 -15 153 3 97 19 312 21 378 4 35 -8 64 -26
100 -61 l52 -48 -45 4 c-251 28 -567 4 -736 -55 -85 -29 -167 -34 -234 -14
-205 62 -285 76 -503 90 -87 6 -96 9 -85 23 7 8 33 24 58 36 57 25 219 27 328
2 96 -21 108 -20 137 9 27 26 34 89 14 127 -41 76 -337 90 -475 23 -67 -33
-129 -100 -144 -157 -7 -23 -14 -49 -16 -55 -5 -19 -41 -16 -49 5 -10 27 -7
199 5 245 35 133 102 293 168 397 113 179 141 215 224 283 120 98 371 238 479
267 119 31 333 33 479 4z m-980 -1285 c265 -50 311 -77 295 -174 -9 -63 -46
-178 -61 -196 -8 -8 -14 -22 -14 -30 0 -8 -9 -32 -21 -53 -11 -21 -18 -40 -15
-43 7 -8 -28 -75 -59 -112 -39 -46 -105 -63 -263 -65 -147 -3 -249 12 -244 35
1 8 16 56 33 108 27 80 30 102 25 155 -10 95 -15 144 -26 241 -5 50 -10 93
-10 98 0 4 -14 7 -31 7 -22 0 -32 -6 -36 -19 -4 -15 -17 -19 -72 -23 -78 -6
-113 -21 -104 -44 5 -14 19 -16 100 -10 87 7 93 6 93 -12 0 -10 14 -74 30
-141 28 -113 29 -124 15 -151 -8 -16 -29 -69 -47 -117 -17 -48 -32 -89 -33
-91 -1 -1 -17 4 -36 12 -82 35 -125 121 -154 308 -23 150 -20 220 10 256 31
37 103 60 225 71 108 10 319 5 400 -10z m1375 -10 c145 -15 232 -57 237 -113
11 -145 -56 -410 -120 -478 -58 -62 -302 -101 -495 -79 -208 24 -238 50 -321
288 -48 141 -67 234 -54 279 12 43 41 58 178 86 167 35 354 41 575 17z m-856
-123 c13 -14 35 -67 53 -126 44 -153 106 -305 142 -353 46 -61 100 -87 214
-103 247 -35 475 -4 585 80 73 55 141 228 161 406 3 25 5 45 5 45 1 1 15 2 31
3 27 2 30 0 31 -30 1 -18 0 -37 -1 -43 -1 -5 -4 -26 -7 -45 l-4 -35 24 38 c13
21 35 49 48 63 33 36 106 77 124 71 44 -17 90 -184 82 -297 -7 -90 -20 -131
-90 -281 -44 -93 -55 -128 -61 -189 -7 -77 -30 -141 -55 -148 -11 -4 -12 23
-9 149 4 126 9 165 27 214 27 74 30 123 12 198 -12 49 -12 67 -1 110 17 68 48
129 63 125 7 -3 22 -33 34 -69 21 -61 22 -62 22 -26 1 43 -18 96 -43 116 -14
12 -19 11 -37 -5 -12 -11 -33 -44 -48 -74 -24 -51 -26 -63 -24 -180 2 -80 -3
-151 -12 -197 -8 -40 -15 -96 -15 -126 0 -150 -81 -453 -154 -577 -81 -139
-310 -356 -628 -597 -148 -112 -277 -159 -461 -167 -203 -9 -277 19 -390 151
-43 49 -111 136 -152 194 -40 57 -87 122 -104 144 -67 91 -175 283 -221 395
-66 160 -84 259 -77 425 3 72 9 140 13 153 6 22 10 23 58 15 83 -13 324 -10
396 6 55 12 72 21 113 62 27 26 46 40 42 31 -4 -9 -12 -30 -17 -47 -6 -16 -23
-43 -39 -60 -38 -41 -69 -112 -69 -162 0 -47 32 -93 83 -119 16 -9 52 -38 78
-64 107 -107 223 -100 338 21 14 14 47 34 73 43 65 24 96 51 108 96 11 42 4
70 -32 128 -26 42 -33 36 -13 -11 25 -61 20 -104 -19 -143 -21 -21 -44 -34
-59 -34 -38 0 -58 -10 -67 -35 -11 -28 -93 -83 -137 -91 -57 -11 -117 13 -178
71 -30 29 -55 49 -55 44 0 -18 -41 12 -61 44 -28 45 -20 94 30 171 55 84 129
285 202 550 14 49 62 96 98 96 16 0 37 -10 50 -24z m1311 6 c0 -5 -11 -19 -25
-32 l-25 -23 0 31 c0 27 4 32 25 32 14 0 25 -4 25 -8z"/>
<path d="M1113 2538 c-11 -13 -26 -34 -33 -48 -11 -21 -7 -19 28 13 23 20 47
37 52 37 6 0 10 5 10 10 0 18 -36 10 -57 -12z"/>
<path d="M1220 2554 c0 -2 21 -12 48 -24 26 -11 65 -35 87 -52 l40 -31 -46 48
c-35 35 -57 49 -88 55 -22 4 -41 6 -41 4z"/>
<path d="M1153 2485 c-43 -18 -118 -89 -133 -124 -14 -35 1 -69 50 -116 l31
-30 160 0 c87 0 159 3 159 8 0 4 -9 7 -20 7 -21 0 -27 14 -11 25 5 3 12 19 16
35 8 37 19 38 41 5 22 -34 30 -25 10 12 -26 49 -102 134 -147 164 -49 32 -103
37 -156 14z m60 -53 c-12 -9 -27 -29 -32 -44 -10 -26 -8 -28 13 -28 28 0 42
-16 44 -50 1 -14 11 -33 24 -44 l23 -18 -25 3 c-14 2 -30 15 -37 29 -18 37
-39 32 -35 -9 2 -34 2 -34 -34 -28 -43 7 -94 51 -94 82 0 21 41 65 95 102 50
34 101 38 58 5z m31 -67 c-4 -8 -10 -12 -15 -9 -11 6 -2 24 11 24 5 0 7 -7 4
-15z m125 -88 c-13 -28 -41 -43 -60 -32 -7 5 -3 12 9 21 11 7 23 26 26 40 6
24 9 25 22 12 12 -12 13 -20 3 -41z"/>
<path d="M2411 2556 c2 -2 18 -6 34 -10 22 -5 26 -4 15 4 -14 9 -59 15 -49 6z"/>
<path d="M2168 2508 c-16 -17 -36 -45 -44 -62 l-15 -31 28 32 c15 18 44 46 63
63 27 23 31 29 17 30 -11 0 -32 -14 -49 -32z"/>
<path d="M2288 2497 c-31 -17 -75 -48 -98 -67 -40 -34 -110 -126 -110 -144 0
-5 31 21 69 57 38 37 72 67 75 67 3 0 3 -14 -1 -32 -4 -21 -3 -29 5 -24 5 3
22 2 37 -4 17 -7 24 -7 20 0 -3 6 -1 10 6 10 7 0 9 -9 6 -22 -5 -16 2 -30 23
-50 17 -15 36 -28 45 -28 16 0 55 38 56 54 1 22 10 60 14 64 12 12 26 -14 21
-40 -9 -47 -43 -87 -79 -93 -41 -8 -87 9 -94 35 -3 11 -11 20 -19 20 -24 0
-26 -21 -5 -44 28 -30 27 -36 -11 -37 -18 0 -42 -5 -53 -10 -15 -7 -10 -8 20
-4 22 2 98 5 168 5 l129 0 59 59 c50 50 59 65 59 94 0 30 -8 42 -52 81 -58 51
-138 86 -196 86 -23 0 -58 -12 -94 -33z m255 -88 c24 -20 37 -39 37 -54 0 -30
-50 -88 -90 -105 -36 -15 -49 -7 -28 17 25 29 40 90 33 133 -4 22 -3 40 2 40
5 0 25 -14 46 -31z"/>
<path d="M2032 2165 c0 -56 12 -78 48 -93 34 -14 35 -14 17 5 -9 11 -28 42
-42 69 -22 45 -24 47 -23 19z"/>
<path d="M2108 1657 c23 -27 11 -62 -22 -65 -27 -3 -28 -2 -24 27 5 36 5 36
-16 15 -23 -22 -20 -41 9 -60 34 -22 69 -11 85 25 13 33 9 46 -23 63 -20 10
-21 10 -9 -5z"/>
<path d="M2275 1368 c-12 -26 -147 -84 -276 -118 -104 -27 -285 -37 -387 -21
-95 15 -252 65 -286 92 -21 17 -29 19 -41 9 -20 -17 -19 -37 3 -45 9 -3 35
-29 57 -56 57 -71 183 -180 248 -213 50 -25 65 -27 154 -27 193 1 271 31 394
148 45 43 100 103 122 133 23 30 47 61 55 69 7 7 11 20 8 28 -3 8 -6 17 -6 19
0 15 -37 0 -45 -18z m-45 -87 c0 -14 -89 -114 -142 -161 -63 -55 -125 -80
-232 -95 -126 -17 -187 -11 -259 27 -68 37 -144 102 -170 147 -18 30 -18 31 2
31 11 0 53 -7 93 -17 51 -11 120 -16 233 -17 142 0 171 3 263 27 56 15 123 36
150 47 55 22 62 23 62 11z"/>
</g>
</svg>
